<svg xmlns="http://www.w3.org/2000/svg" viewBox="0 0 420 110"><rect x="0" y="5" width="100" height="100" fill="none" stroke="#bbb" stroke-width="2"/><g transform="translate(0 5)"><g transform="rotate(90 50 50)"><line x1="50" y1="84" x2="50" y2="30" stroke="#111" stroke-width="8" stroke-linecap="round"/><polygon points="50,12 33,40 67,40" fill="#111"/></g></g><rect x="105" y="5" width="100" height="100" fill="none" stroke="#bbb" stroke-width="2"/><g transform="translate(105 5)"><g transform="rotate(180 50 50)"><line x1="50" y1="84" x2="50" y2="30" stroke="#111" stroke-width="8" stroke-linecap="round"/><polygon points="50,12 33,40 67,40" fill="#111"/></g></g><rect x="210" y="5" width="100" height="100" fill="none" stroke="#bbb" stroke-width="2"/><g transform="translate(210 5)"><g transform="rotate(270 50 50)"><line x1="50" y1="84" x2="50" y2="30" stroke="#111" stroke-width="8" stroke-linecap="round"/><polygon points="50,12 33,40 67,40" fill="#111"/></g></g><rect x="315" y="5" width="100" height="100" fill="#f3f3f3" stroke="#bbb" stroke-width="2"/><text x="365" y="75" font-size="60" text-anchor="middle" fill="#888">?</text></svg>
