<svg xmlns="http://www.w3.org/2000/svg" viewBox="0 0 420 110"><rect x="0" y="5" width="100" height="100" fill="none" stroke="#bbb" stroke-width="2"/><g transform="translate(0 5)"><circle cx="33.3" cy="50" r="8" fill="#111"/><circle cx="66.7" cy="50" r="8" fill="#111"/></g><rect x="105" y="5" width="100" height="100" fill="none" stroke="#bbb" stroke-width="2"/><g transform="translate(105 5)"><circle cx="20.0" cy="50" r="8" fill="#111"/><circle cx="40.0" cy="50" r="8" fill="#111"/><circle cx="60.0" cy="50" r="8" fill="#111"/><circle cx="80.0" cy="50" r="8" fill="#111"/></g><rect x="210" y="5" width="100" height="100" fill="none" stroke="#bbb" stroke-width="2"/><g transform="translate(210 5)"><circle cx="14.3" cy="50" r="8" fill="#111"/><circle cx="28.6" cy="50" r="8" fill="#111"/><circle cx="42.9" cy="50" r="8" fill="#111"/><circle cx="57.1" cy="50" r="8" fill="#111"/><circle cx="71.4" cy="50" r="8" fill="#111"/><circle cx="85.7" cy="50" r="8" fill="#111"/></g><rect x="315" y="5" width="100" height="100" fill="#f3f3f3" stroke="#bbb" stroke-width="2"/><text x="365" y="78" font-size="60" text-anchor="middle" fill="#888">?</text></svg>
